<svg width="57" height="56" viewBox="0 0 57 56" fill="none" xmlns="http://www.w3.org/2000/svg">
<path d="M51.6665 21H4.99988M4.99988 18.2L4.99988 37.8C4.99988 41.7204 4.99988 43.6805 5.76283 45.1779C6.43395 46.4951 7.50481 47.5659 8.82194 48.237C10.3193 49 12.2795 49 16.1999 49H40.4665C44.3869 49 46.3471 49 47.8445 48.237C49.1616 47.5659 50.2325 46.4951 50.9036 45.1779C51.6666 43.6805 51.6665 41.7204 51.6665 37.8V18.2C51.6665 14.2796 51.6666 12.3195 50.9036 10.8221C50.2325 9.50494 49.1616 8.43407 47.8445 7.76296C46.3471 7 44.3869 7 40.4666 7L16.1999 7C12.2795 7 10.3193 7 8.82195 7.76295C7.50481 8.43407 6.43395 9.50493 5.76283 10.8221C4.99988 12.3194 4.99988 14.2796 4.99988 18.2Z" stroke="white" stroke-width="3" stroke-linecap="round" stroke-linejoin="round"/>
</svg>
