<svg width="57" height="56" viewBox="0 0 57 56" fill="none" xmlns="http://www.w3.org/2000/svg">
<path d="M33.3333 16.3333H38.7869C39.3576 16.3333 39.643 16.3333 39.9115 16.3977C40.1496 16.4549 40.3772 16.5492 40.586 16.6771C40.8214 16.8214 41.0232 17.0232 41.4268 17.4267L50.9065 26.9065C51.3101 27.31 51.5118 27.5118 51.6561 27.7473C51.7841 27.956 51.8783 28.1836 51.9355 28.4217C52 28.6902 52 28.9756 52 29.5463V36.1666C52 37.2538 52 37.7974 51.8224 38.2262C51.5855 38.7979 51.1313 39.2522 50.5596 39.489C50.1308 39.6666 49.5872 39.6666 48.5 39.6666M36.8333 39.6666H33.3333M33.3333 39.6666V16.7999C33.3333 14.1863 33.3333 12.8796 32.8247 11.8813C32.3773 11.0032 31.6634 10.2893 30.7853 9.84189C29.787 9.33325 28.4802 9.33325 25.8666 9.33325H12.8C10.1864 9.33325 8.87961 9.33325 7.88136 9.84189C7.00327 10.2893 6.28936 11.0032 5.84195 11.8813C5.33331 12.8796 5.33331 14.1863 5.33331 16.7999V34.9999C5.33331 37.5772 7.42265 39.6666 9.99998 39.6666M33.3333 39.6666H24M24 39.6666C24 43.5326 20.866 46.6666 17 46.6666C13.134 46.6666 9.99998 43.5326 9.99998 39.6666M24 39.6666C24 35.8006 20.866 32.6666 17 32.6666C13.134 32.6666 9.99998 35.8006 9.99998 39.6666M48.5 40.8333C48.5 44.0549 45.8883 46.6666 42.6666 46.6666C39.445 46.6666 36.8333 44.0549 36.8333 40.8333C36.8333 37.6116 39.445 34.9999 42.6666 34.9999C45.8883 34.9999 48.5 37.6116 48.5 40.8333Z" stroke="white" stroke-width="3" stroke-linecap="round" stroke-linejoin="round"/>
</svg>
