<svg width="57" height="56" viewBox="0 0 57 56" fill="none" xmlns="http://www.w3.org/2000/svg">
<path d="M49.3333 7H7.33331M49.3333 49H7.33331M12 28C12 25.8256 12 24.7384 12.3552 23.8808C12.8288 22.7373 13.7373 21.8289 14.8808 21.3552C15.7384 21 16.8256 21 19 21L37.6666 21C39.841 21 40.9282 21 41.7858 21.3552C42.9293 21.8289 43.8378 22.7373 44.3114 23.8808C44.6666 24.7384 44.6666 25.8256 44.6666 28C44.6666 30.1744 44.6666 31.2616 44.3114 32.1192C43.8378 33.2627 42.9293 34.1711 41.7858 34.6448C40.9282 35 39.841 35 37.6666 35L19 35C16.8256 35 15.7384 35 14.8808 34.6448C13.7373 34.1711 12.8288 33.2627 12.3552 32.1192C12 31.2616 12 30.1744 12 28Z" stroke="white" stroke-width="3" stroke-linecap="round" stroke-linejoin="round"/>
</svg>
