<svg width="57" height="56" viewBox="0 0 57 56" fill="none" xmlns="http://www.w3.org/2000/svg">
<path d="M37.9999 8.09144C41.4573 9.80959 43.8333 13.3773 43.8333 17.5C43.8333 21.6227 41.4573 25.1904 37.9999 26.9086M42.6666 39.1216C46.1933 40.7175 49.3691 43.3183 51.9999 46.6667M5.33325 46.6667C9.87506 40.886 16.0413 37.3333 22.8333 37.3333C29.6252 37.3333 35.7914 40.886 40.3333 46.6667M33.3333 17.5C33.3333 23.299 28.6322 28 22.8333 28C17.0343 28 12.3333 23.299 12.3333 17.5C12.3333 11.701 17.0343 7 22.8333 7C28.6322 7 33.3333 11.701 33.3333 17.5Z" stroke="white" stroke-width="3" stroke-linecap="round" stroke-linejoin="round"/>
</svg>
