<svg width="56" height="56" viewBox="0 0 56 56" fill="none" xmlns="http://www.w3.org/2000/svg">
<path d="M26.8334 11.6667H27.8469C34.9572 11.6667 38.5123 11.6667 39.8618 12.9438C41.0284 14.0476 41.5454 15.6737 41.2304 17.2486C40.8661 19.0705 37.9636 21.1234 32.1587 25.2293L22.6747 31.9375C16.8698 36.0434 13.9673 38.0964 13.603 39.9183C13.288 41.4931 13.805 43.1192 14.9715 44.2231C16.3211 45.5001 19.8762 45.5001 26.9864 45.5001H29.1667M18.6667 11.6667C18.6667 15.5327 15.5327 18.6667 11.6667 18.6667C7.80069 18.6667 4.66669 15.5327 4.66669 11.6667C4.66669 7.80075 7.80069 4.66675 11.6667 4.66675C15.5327 4.66675 18.6667 7.80075 18.6667 11.6667ZM51.3334 44.3334C51.3334 48.1994 48.1993 51.3334 44.3334 51.3334C40.4674 51.3334 37.3334 48.1994 37.3334 44.3334C37.3334 40.4674 40.4674 37.3334 44.3334 37.3334C48.1993 37.3334 51.3334 40.4674 51.3334 44.3334Z" stroke="white" stroke-width="3" stroke-linecap="round" stroke-linejoin="round"/>
</svg>
